<?xml version="1.0" encoding="UTF-8"?>
<!--Generator: Apple Native CoreSVG 326-->
<!DOCTYPE svg
PUBLIC "-//W3C//DTD SVG 1.1//EN"
       "http://www.w3.org/Graphics/SVG/1.1/DTD/svg11.dtd">
<svg version="1.1" xmlns="http://www.w3.org/2000/svg" xmlns:xlink="http://www.w3.org/1999/xlink" viewBox="0 0 35.2783 55.249">
 <g>
  <rect height="55.249" opacity="0" width="35.2783" x="0" y="0"/>
  <path d="M0 25.5615C0 35.1318 6.32324 41.8457 15.625 42.627L15.625 48.3154L6.56738 48.3154C5.54199 48.3154 4.71191 49.1455 4.71191 50.1709C4.71191 51.1963 5.54199 52.002 6.56738 52.002L28.3691 52.002C29.3945 52.002 30.2246 51.1963 30.2246 50.1709C30.2246 49.1455 29.3945 48.3154 28.3691 48.3154L19.3115 48.3154L19.3115 42.627C28.6377 41.8457 34.9365 35.1318 34.9365 25.5615L34.9365 20.6055C34.9365 19.5801 34.1309 18.7744 33.1055 18.7744C32.0801 18.7744 31.25 19.5801 31.25 20.6055L31.25 25.415C31.25 33.7402 25.8301 39.2578 17.4805 39.2578C9.10645 39.2578 3.68652 33.7402 3.68652 25.415L3.68652 20.6055C3.68652 19.5801 2.88086 18.7744 1.83105 18.7744C0.805664 18.7744 0 19.5801 0 20.6055ZM17.4805 34.0088C22.3389 34.0088 25.6104 30.3711 25.6104 25.1709L25.6104 8.83789C25.6104 3.61328 22.3389 0 17.4805 0C12.5977 0 9.32617 3.61328 9.32617 8.83789L9.32617 25.1709C9.32617 30.3711 12.5977 34.0088 17.4805 34.0088Z" fill="#ff9f0a"/>
 </g>
</svg>
