<?xml version="1.0" encoding="UTF-8"?>
<!--Generator: Apple Native CoreSVG 326-->
<!DOCTYPE svg
PUBLIC "-//W3C//DTD SVG 1.1//EN"
       "http://www.w3.org/Graphics/SVG/1.1/DTD/svg11.dtd">
<svg version="1.1" xmlns="http://www.w3.org/2000/svg" xmlns:xlink="http://www.w3.org/1999/xlink" viewBox="0 0 47.6258 55.7373">
 <g>
  <rect height="55.7373" opacity="0" width="47.6258" x="0" y="0"/>
  <path d="M9.87245 20.8496L9.87245 25.6592C9.87245 33.9844 15.2924 39.502 23.642 39.502C26.1562 39.502 28.4071 39.0016 30.3188 38.0668L32.9211 40.664C30.7753 41.8791 28.2686 42.6383 25.4975 42.8711L25.4975 48.5596L34.5551 48.5596C35.5805 48.5596 36.3861 49.3896 36.3861 50.415C36.3861 51.4404 35.5805 52.2461 34.5551 52.2461L12.7289 52.2461C11.7035 52.2461 10.8978 51.4404 10.8978 50.415C10.8978 49.3896 11.7035 48.5596 12.7289 48.5596L21.8109 48.5596L21.8109 42.8711C12.4848 42.0898 6.18593 35.376 6.18593 25.8057L6.18593 20.8496C6.18593 19.8242 6.99159 19.0186 8.01698 19.0186C9.04237 19.0186 9.87245 19.8242 9.87245 20.8496ZM18.5587 26.3295C18.994 28.9283 20.6748 30.6043 23.0705 30.8325L26.3556 34.1113C25.5156 34.3647 24.6066 34.4971 23.642 34.4971C18.393 34.4971 14.7553 30.542 14.7553 24.9268L14.7553 22.5334ZM41.1225 20.8496L41.1225 25.8057C41.1225 28.763 40.5186 31.4477 39.4064 33.7664L36.5811 30.9448C37.1445 29.3612 37.4359 27.5853 37.4359 25.6592L37.4359 20.8496C37.4359 19.8242 38.2416 19.0186 39.267 19.0186C40.2924 19.0186 41.1225 19.8242 41.1225 20.8496ZM32.5287 9.57031L32.5287 24.9268C32.5287 25.56 32.4827 26.1722 32.3873 26.7564L28.8422 23.2159L28.8422 9.57031C28.8422 5.95703 26.767 3.6377 23.642 3.6377C20.517 3.6377 18.4418 5.95703 18.4418 9.57031L18.4418 12.8289L14.7718 9.16367C14.9346 3.74033 18.5216 0 23.642 0C28.9154 0 32.5287 3.93066 32.5287 9.57031Z" fill="#ff9f0a"/>
  <path d="M41.5863 45.2881C42.3187 46.0205 43.515 46.0205 44.2475 45.2881C44.9555 44.5312 44.9799 43.3594 44.2475 42.627L6.4789 4.88281C5.74648 4.1748 4.52577 4.15039 3.79335 4.88281C3.08534 5.61523 3.08534 6.83594 3.79335 7.54395Z" fill="#ff9f0a"/>
 </g>
</svg>
