<?xml version="1.0" encoding="UTF-8"?>
<!--Generator: Apple Native CoreSVG 326-->
<!DOCTYPE svg
PUBLIC "-//W3C//DTD SVG 1.1//EN"
       "http://www.w3.org/Graphics/SVG/1.1/DTD/svg11.dtd">
<svg version="1.1" xmlns="http://www.w3.org/2000/svg" xmlns:xlink="http://www.w3.org/1999/xlink" viewBox="0 0 58.0322 20.9717">
 <g>
  <rect height="20.9717" opacity="0" width="58.0322" x="0" y="0"/>
  <path d="M28.833 0C19.3359 0 8.52051 1.70898 3.24707 7.15332C1.2207 9.2041 0 11.7676 0 15.0146C0 17.2363 0.708008 20.5322 3.2959 20.7764C4.00391 20.9717 4.6875 20.8984 5.56641 20.752L12.7686 19.5557C15.2588 19.1406 16.4307 18.2129 17.0898 15.8203L18.2861 11.5234C18.5303 10.6445 18.7744 10.3516 19.8242 9.96094C21.7773 9.25293 25 8.8623 28.833 8.8623C32.6904 8.8623 35.9131 9.25293 37.8662 9.96094C38.916 10.3516 39.1602 10.6445 39.3799 11.5234L40.6006 15.8203C41.2598 18.2129 42.4316 19.1406 44.9219 19.5557L52.124 20.752C52.9785 20.8984 53.6621 20.9717 54.3701 20.7764C56.9824 20.5322 57.6904 17.2363 57.6904 15.0146C57.6904 11.7676 56.4697 9.2041 54.4434 7.15332C49.1699 1.70898 38.3545 0 28.833 0Z" fill="white" fill-opacity="0.85"/>
 </g>
</svg>
