<?xml version="1.0" encoding="UTF-8"?>
<!--Generator: Apple Native CoreSVG 326-->
<!DOCTYPE svg
PUBLIC "-//W3C//DTD SVG 1.1//EN"
       "http://www.w3.org/Graphics/SVG/1.1/DTD/svg11.dtd">
<svg version="1.1" xmlns="http://www.w3.org/2000/svg" xmlns:xlink="http://www.w3.org/1999/xlink" viewBox="0 0 70.8618 58.6549">
 <g>
  <rect height="58.6549" opacity="0" width="70.8618" x="0" y="0"/>
  <path d="M11.0231 18.4232C11.0023 18.6826 10.9924 18.9527 10.9924 19.2322L10.9924 39.3982C10.9924 43.6219 13.2629 45.6971 17.2668 45.6971L38.3246 45.6971L42.0149 49.3836L16.5833 49.3836C10.6262 49.3836 7.06177 45.9168 7.06177 39.9598L7.06177 18.6463C7.06177 17.3112 7.25588 16.101 7.63112 15.0347ZM51.6174 18.6463L51.6174 22.0046L60.8459 14.2029C61.8225 13.3973 62.8967 12.8357 63.8977 12.8357C66.0461 12.8357 67.4622 14.4227 67.4622 16.6932L67.4622 41.9373C67.4622 44.2078 66.0461 45.7947 63.8977 45.7947C62.8967 45.7947 61.8225 45.2332 60.8459 44.4275L51.6174 36.6029L51.6174 39.9598C51.6174 41.336 51.4272 42.5792 51.053 43.6709L47.6486 40.2682C47.675 39.9912 47.6868 39.7002 47.6868 39.3982L47.6868 19.2322C47.6868 14.9842 45.3918 12.909 41.4124 12.909L20.2755 12.909L16.6116 9.24688L42.0959 9.24688C48.053 9.24688 51.6174 12.7137 51.6174 18.6463ZM62.677 17.5232L51.6174 26.6544L51.6174 31.9761L62.677 41.1072C62.8967 41.2537 63.0432 41.3758 63.2629 41.3758C63.5559 41.3758 63.678 41.1561 63.678 40.8143L63.678 17.8162C63.678 17.4744 63.5559 17.2303 63.2629 17.2303C63.0432 17.2303 62.8967 17.3523 62.677 17.5232Z" fill="#32d74b"/>
  <path d="M52.1057 54.7547C52.8381 55.4871 54.0588 55.4871 54.7668 54.7547C55.4993 54.0223 55.4993 52.826 54.7668 52.0936L6.54907 3.9002C5.81665 3.16778 4.62036 3.16778 3.86353 3.9002C3.15552 4.60821 3.15552 5.85333 3.86353 6.56133Z" fill="#32d74b"/>
 </g>
</svg>
