<?xml version="1.0" encoding="UTF-8"?>
<!--Generator: Apple Native CoreSVG 326-->
<!DOCTYPE svg
PUBLIC "-//W3C//DTD SVG 1.1//EN"
       "http://www.w3.org/Graphics/SVG/1.1/DTD/svg11.dtd">
<svg version="1.1" xmlns="http://www.w3.org/2000/svg" xmlns:xlink="http://www.w3.org/1999/xlink" viewBox="0 0 63.623 39.6729">
 <g>
  <rect height="39.6729" opacity="0" width="63.623" x="0" y="0"/>
  <path d="M11.5234 39.6484L37.7441 39.6484C42.6514 39.6484 45.5811 36.8164 45.5811 31.9092L45.5811 7.71484C45.5811 2.83203 42.8955 0 37.9883 0L11.5234 0C6.83594 0 3.68652 2.83203 3.68652 7.71484L3.68652 31.9092C3.68652 36.8164 6.61621 39.6484 11.5234 39.6484ZM48.9014 27.0264L57.7881 34.7168C58.6182 35.4492 59.5947 35.9131 60.4736 35.9131C62.3779 35.9131 63.623 34.5215 63.623 32.5195L63.623 7.12891C63.623 5.12695 62.3779 3.73535 60.4736 3.73535C59.5947 3.73535 58.6182 4.19922 57.7881 4.93164L48.9014 12.5977Z" fill="#32d74b"/>
 </g>
</svg>
